<mxfile host="Electron" agent="Mozilla/5.0 (Windows NT 10.0; Win64; x64) AppleWebKit/537.36 (KHTML, like Gecko) draw.io/27.0.2 Chrome/134.0.6998.205 Electron/35.3.0 Safari/537.36" version="27.0.2">
  <diagram name="Page-1" id="fedMe91MHl5UtikNwDkV">
    <mxGraphModel dx="1180" dy="669" grid="1" gridSize="10" guides="1" tooltips="1" connect="1" arrows="1" fold="1" page="1" pageScale="1" pageWidth="850" pageHeight="1100" math="0" shadow="0">
      <root>
        <mxCell id="0" />
        <mxCell id="1" parent="0" />
        <mxCell id="0iyfRWB47ZCOjuXq-kxz-1" value="" style="rounded=1;whiteSpace=wrap;html=1;strokeWidth=3;" vertex="1" parent="1">
          <mxGeometry x="80" y="160" width="680" height="550" as="geometry" />
        </mxCell>
        <mxCell id="0iyfRWB47ZCOjuXq-kxz-2" value="" style="whiteSpace=wrap;html=1;aspect=fixed;strokeWidth=2;" vertex="1" parent="1">
          <mxGeometry x="120" y="200" width="160" height="160" as="geometry" />
        </mxCell>
        <mxCell id="0iyfRWB47ZCOjuXq-kxz-3" value="" style="rounded=1;whiteSpace=wrap;html=1;" vertex="1" parent="1">
          <mxGeometry x="310" y="190" width="400" height="60" as="geometry" />
        </mxCell>
        <mxCell id="0iyfRWB47ZCOjuXq-kxz-5" value="" style="rounded=1;whiteSpace=wrap;html=1;" vertex="1" parent="1">
          <mxGeometry x="120" y="380" width="600" height="140" as="geometry" />
        </mxCell>
        <mxCell id="0iyfRWB47ZCOjuXq-kxz-6" value="" style="rounded=1;whiteSpace=wrap;html=1;" vertex="1" parent="1">
          <mxGeometry x="120" y="540" width="600" height="140" as="geometry" />
        </mxCell>
        <mxCell id="0iyfRWB47ZCOjuXq-kxz-12" value="" style="rounded=1;whiteSpace=wrap;html=1;" vertex="1" parent="1">
          <mxGeometry x="260" y="390" width="50" height="30" as="geometry" />
        </mxCell>
        <mxCell id="0iyfRWB47ZCOjuXq-kxz-15" value="" style="rounded=1;whiteSpace=wrap;html=1;" vertex="1" parent="1">
          <mxGeometry x="325" y="390" width="50" height="30" as="geometry" />
        </mxCell>
        <mxCell id="0iyfRWB47ZCOjuXq-kxz-16" value="" style="rounded=1;whiteSpace=wrap;html=1;" vertex="1" parent="1">
          <mxGeometry x="195" y="390" width="50" height="30" as="geometry" />
        </mxCell>
        <mxCell id="0iyfRWB47ZCOjuXq-kxz-17" value="" style="rounded=1;whiteSpace=wrap;html=1;" vertex="1" parent="1">
          <mxGeometry x="130" y="390" width="50" height="30" as="geometry" />
        </mxCell>
        <mxCell id="0iyfRWB47ZCOjuXq-kxz-19" value="" style="rounded=1;whiteSpace=wrap;html=1;" vertex="1" parent="1">
          <mxGeometry x="260" y="435" width="50" height="30" as="geometry" />
        </mxCell>
        <mxCell id="0iyfRWB47ZCOjuXq-kxz-22" value="" style="rounded=1;whiteSpace=wrap;html=1;" vertex="1" parent="1">
          <mxGeometry x="325" y="435" width="50" height="30" as="geometry" />
        </mxCell>
        <mxCell id="0iyfRWB47ZCOjuXq-kxz-23" value="" style="rounded=1;whiteSpace=wrap;html=1;" vertex="1" parent="1">
          <mxGeometry x="195" y="435" width="50" height="30" as="geometry" />
        </mxCell>
        <mxCell id="0iyfRWB47ZCOjuXq-kxz-24" value="" style="rounded=1;whiteSpace=wrap;html=1;" vertex="1" parent="1">
          <mxGeometry x="130" y="435" width="50" height="30" as="geometry" />
        </mxCell>
        <mxCell id="0iyfRWB47ZCOjuXq-kxz-25" value="" style="rounded=1;whiteSpace=wrap;html=1;" vertex="1" parent="1">
          <mxGeometry x="260" y="480" width="50" height="30" as="geometry" />
        </mxCell>
        <mxCell id="0iyfRWB47ZCOjuXq-kxz-28" value="" style="rounded=1;whiteSpace=wrap;html=1;" vertex="1" parent="1">
          <mxGeometry x="325" y="480" width="50" height="30" as="geometry" />
        </mxCell>
        <mxCell id="0iyfRWB47ZCOjuXq-kxz-29" value="" style="rounded=1;whiteSpace=wrap;html=1;" vertex="1" parent="1">
          <mxGeometry x="195" y="480" width="50" height="30" as="geometry" />
        </mxCell>
        <mxCell id="0iyfRWB47ZCOjuXq-kxz-30" value="" style="rounded=1;whiteSpace=wrap;html=1;" vertex="1" parent="1">
          <mxGeometry x="130" y="480" width="50" height="30" as="geometry" />
        </mxCell>
        <mxCell id="0iyfRWB47ZCOjuXq-kxz-33" value="" style="rounded=1;whiteSpace=wrap;html=1;" vertex="1" parent="1">
          <mxGeometry x="310" y="265" width="400" height="40" as="geometry" />
        </mxCell>
        <mxCell id="0iyfRWB47ZCOjuXq-kxz-34" value="" style="rounded=1;whiteSpace=wrap;html=1;" vertex="1" parent="1">
          <mxGeometry x="310" y="320" width="400" height="40" as="geometry" />
        </mxCell>
        <mxCell id="0iyfRWB47ZCOjuXq-kxz-35" value="" style="verticalLabelPosition=bottom;verticalAlign=top;html=1;shape=mxgraph.basic.star" vertex="1" parent="1">
          <mxGeometry x="250" y="330" width="30" height="25" as="geometry" />
        </mxCell>
        <mxCell id="0iyfRWB47ZCOjuXq-kxz-36" value="" style="verticalLabelPosition=bottom;verticalAlign=top;html=1;shape=mxgraph.basic.x" vertex="1" parent="1">
          <mxGeometry x="740" y="160" width="20" height="20" as="geometry" />
        </mxCell>
      </root>
    </mxGraphModel>
  </diagram>
</mxfile>
